<svg width="29" height="26" viewBox="0 0 29 26" fill="none" xmlns="http://www.w3.org/2000/svg">
<rect x="0.75" y="0.75" width="26.75" height="24.5" rx="3.25" fill="white"/>
<path d="M19.8125 6.875H16.5312L16.2578 6.38281C16.1484 6.16406 15.9297 6 15.6836 6H12.5391C12.293 6 12.0742 6.16406 11.9648 6.38281L11.7188 6.875H8.4375C8.19141 6.875 8 7.09375 8 7.3125V8.1875C8 8.43359 8.19141 8.625 8.4375 8.625H19.8125C20.0312 8.625 20.25 8.43359 20.25 8.1875V7.3125C20.25 7.09375 20.0312 6.875 19.8125 6.875ZM9.44922 18.7695C9.47656 19.4805 10.0508 20 10.7617 20H17.4609C18.1719 20 18.7461 19.4805 18.7734 18.7695L19.375 9.5H8.875L9.44922 18.7695Z" fill="#ADB5BD"/>
<rect x="0.75" y="0.75" width="26.75" height="24.5" rx="3.25" stroke="#F1F3F5" stroke-width="1.5"/>
</svg>
